<svg class="w-6 h-6" width="485" height="128" version="1.1" viewBox="0 0 485 128" xmlns="http://www.w3.org/2000/svg"><path d="m0 9.14c0-4.57 4.57-9.14 9.14-9.14h110c4.57 0 9.14 4.57 9.14 9.88v109c0 4.57-4.57 9.14-9.14 9.14h-110c-4.57 0-9.14-4.57-9.14-9.14v-110z" fill="#0d1520" stroke-dasharray="96.4837, 96.4837" stroke-linecap="round" stroke-linejoin="round" stroke-width="96.5" style="paint-order:stroke fill markers"/><path d="m59.8 45.1c-8.09-4.27-15.6-8.4-25.2-8.39-5.71-0.0048-13 1.18-18.4 2.75-1.55 0.451-2.58 1.66-2.58 3.01v52.3c3.83e-4 2.2 2.64 3.74 5.16 3.01 4.56-1.33 11-2.36 15.8-2.35 10.3 0 17.8 3.37 25.2 8.39zm8.39 58.7c7.62-5.2 15.3-8.4 25.2-8.39 4.98 0 11.4 1.06 15.8 2.36 2.52 0.735 5.16-0.809 5.16-3.01v-52.3c-2.3e-4 -1.35-1.03-2.56-2.58-3.01-5.39-1.57-12.7-2.76-18.4-2.75-9.6-0.0118-17.1 4.11-25.2 8.39z" fill="#ff801f" stroke-width="4.69"/><path d="m59.8 40.9c-8.09-4.27-15.6-8.4-25.2-8.39-5.71-0.00482-13 1.05-18.4 2.62-1.55 0.451-2.58 1.66-2.58 3.01v52.3c3.79e-4 2.2 2.64 3.74 5.16 3.01 4.56-1.33 11-2.23 15.8-2.22 10.3 0 17.8 3.37 25.2 8.39zm8.39 58.7c7.62-5.2 15.3-8.4 25.2-8.39 4.98 0 11.4 0.934 15.8 2.23 2.52 0.735 5.16-0.809 5.16-3.01v-52.3c-2.3e-4 -1.35-1.03-2.56-2.58-3.01-5.39-1.57-12.7-2.63-18.4-2.62-9.6-0.0118-17.1 4.11-25.2 8.39z" fill="#00a2c7" stroke-width="4.69"/><path d="m59.8 36.7c-8.09-4.27-15.6-8.4-25.2-8.39-5.71-0.0048-13 0.923-18.4 2.49-1.55 0.451-2.58 1.66-2.58 3.01v52.3c3.83e-4 2.2 2.64 3.74 5.16 3.01 4.56-1.33 11-2.1 15.8-2.09 10.3 0 17.8 3.37 25.2 8.39zm8.39 58.7c7.62-5.2 15.3-8.4 25.2-8.39 4.98 0 11.4 0.805 15.8 2.1 2.52 0.735 5.16-0.809 5.16-3.01v-52.3c-2.3e-4 -1.35-1.03-2.56-2.58-3.01-5.39-1.57-12.7-2.5-18.4-2.49-9.6-0.0118-17.1 4.11-25.2 8.39z" fill="#ffc53d" stroke-width="4.69"/><path d="m59.8 32.6c-8.09-4.27-15.6-8.4-25.2-8.39-5.71-0.0048-13 0.794-18.4 2.36-1.55 0.451-2.58 1.66-2.58 3.01v52.3c3.79e-4 2.2 2.64 3.74 5.16 3.01 4.56-1.33 11-1.97 15.8-1.97 10.3 0 17.8 3.37 25.2 8.39zm8.39 58.7c7.62-5.2 15.3-8.4 25.2-8.39 4.98 0 11.4 0.676 15.8 1.97 2.52 0.735 5.16-0.809 5.16-3.01v-52.3c-2.3e-4 -1.35-1.03-2.56-2.58-3.01-5.39-1.57-12.7-2.37-18.4-2.36-9.6-0.0118-17.1 4.11-25.2 8.39z" fill="#edeef0" stroke-width="4.69"/><path d="m176 46.9h-21.5l8.51-6.59c6.72-5.12 12-9.92 12-17.3 0-7.74-5.63-13.4-15.4-13.4-9.47 0-14.7 5.25-16.7 11.4l8.38 3.2c0.96-3.39 3.07-6.27 7.36-6.27 3.71 0 6.14 1.98 6.14 5.7v0.64c0 3.39-1.98 6.14-6.85 10.3l-14.1 11.7v8.77h32.1zm21.4 8.83c11.2 0 17.1-6.14 17.1-14.5 0-7.04-4.16-11.3-11.3-12.5l-4.67-0.832c-4.35-0.768-6.14-2.11-6.14-5.18 0-3.52 2.18-5.31 6.46-5.31 4.03 0 7.36 1.6 9.73 4.22l5.44-6.08c-3.14-3.65-8.38-5.95-15.2-5.95-10.1 0-16.1 4.99-16.1 13.6 0 6.53 3.39 11.5 11.4 12.8l4.67 0.768c4.35 0.704 6.02 2.18 6.02 5.31 0 3.84-2.5 5.95-7.04 5.95-3.97 0-8-1.66-11.3-5.25l-5.57 6.14c3.39 4.22 9.09 6.91 16.5 6.91zm23.7 12h9.47v-18.8h0.448c1.66 3.97 4.48 6.78 9.79 6.78 7.3 0 12.4-5.31 12.4-17.3s-5.12-17.3-12.4-17.3c-5.31 0-8.13 2.82-9.79 6.78h-0.448v-6.02h-9.47zm15.6-19.4c-3.33 0-6.14-1.6-6.14-5.06v-9.73c0-3.46 2.82-5.06 6.14-5.06 4.22 0 6.66 2.75 6.66 7.36v5.12c0 4.61-2.43 7.36-6.66 7.36zm55.6 6.59v-6.85h-3.65v-14.5c0-8.32-5.38-12.5-14.4-12.5-7.36 0-12.2 2.75-14.3 6.46l5.18 4.61c1.79-2.43 4.1-4.16 8.06-4.16 4.35 0 6.02 2.05 6.02 5.95v1.66h-5.31c-9.66 0-14.8 3.26-14.8 10.2 0 6.21 4.22 9.86 10.6 9.86 5.06 0 8.9-2.3 10-6.59h0.32c0.384 3.71 2.94 5.82 6.85 5.82zm-19.1-5.44c-3.01 0-4.93-1.22-4.93-3.52v-1.28c0-2.56 2.05-3.9 5.82-3.9h5.06v3.97c0 3.07-2.62 4.74-5.95 4.74zm41.4 6.21c7.36 0 11.8-3.26 14.2-8.06l-7.17-4.1c-1.41 2.69-3.33 4.61-6.98 4.61-4.48 0-6.91-2.69-6.91-7.04v-5.38c0-4.35 2.5-7.04 6.78-7.04 3.52 0 5.31 1.92 6.46 4.48l7.3-3.97c-2.3-4.8-6.53-8.06-13.8-8.06-10.3 0-16.6 6.59-16.6 17.3s6.27 17.3 16.7 17.3zm38 0c7.1 0 11.6-2.69 14.1-5.82l-5.12-5.57c-2.05 2.43-4.8 4.1-8.7 4.1-5.06 0-7.81-2.88-7.81-7.1v-0.576h22.6v-2.82c0-10.3-6.08-16.8-15.9-16.8-9.92 0-16.1 6.59-16.1 17.4 0 10.6 5.82 17.2 16.9 17.2zm-0.768-27.8c4.1 0 6.59 2.69 6.59 6.98v0.512h-13.3v-0.512c0-4.22 2.62-6.98 6.72-6.98zm23.2 27h14.4c12 0 17.7-8 17.7-22.3s-5.76-22.3-17.7-22.3h-14.4zm9.47-7.55v-29.6h4.29c5.7 0 8.26 3.78 8.26 10.7v8.13c0 6.98-2.56 10.8-8.26 10.8zm44.9 8.32c7.1 0 11.6-2.69 14.1-5.82l-5.12-5.57c-2.05 2.43-4.8 4.1-8.7 4.1-5.06 0-7.81-2.88-7.81-7.1v-0.576h22.6v-2.82c0-10.3-6.08-16.8-15.9-16.8-9.92 0-16.1 6.59-16.1 17.4 0 10.6 5.82 17.2 16.9 17.2zm-0.768-27.8c4.1 0 6.59 2.69 6.59 6.98v0.512h-13.3v-0.512c0-4.22 2.62-6.98 6.72-6.98zm43.9 27 11.8-33h-9.6l-4.29 14.1-3.14 11h-0.512l-3.14-11-4.29-14.1h-9.98l11.8 33z" fill="#fff"/><path d="m165 119h9.66v-44.7h-9.66v18.1h-11.3v-18.1h-9.66v44.7h9.66v-18.7h11.3zm50.2 0v-6.85h-3.65v-14.5c0-8.32-5.38-12.5-14.4-12.5-7.36 0-12.2 2.75-14.3 6.46l5.18 4.61c1.79-2.43 4.1-4.16 8.06-4.16 4.35 0 6.02 2.05 6.02 5.95v1.66h-5.31c-9.66 0-14.8 3.26-14.8 10.2 0 6.21 4.22 9.86 10.6 9.86 5.06 0 8.9-2.3 10-6.59h0.32c0.384 3.71 2.94 5.82 6.85 5.82zm-19.1-5.44c-3.01 0-4.93-1.22-4.93-3.52v-1.28c0-2.56 2.05-3.9 5.82-3.9h5.06v3.97c0 3.07-2.62 4.74-5.95 4.74zm34.5 5.44v-21.7c0-3.2 2.88-4.8 5.82-4.8 3.71 0 5.57 2.24 5.57 6.4v20.1h9.47v-21.4c0-8-4.42-12.4-10.8-12.4-5.31 0-8.26 3.07-9.73 6.78h-0.384v-6.02h-9.47v33zm49.9 0h9.47v-47.4h-9.47v20.4h-0.448c-1.66-3.97-4.48-6.78-9.79-6.78-7.3 0-12.4 5.31-12.4 17.3s5.12 17.3 12.4 17.3c5.31 0 8.13-2.82 9.79-6.78h0.448zm-6.14-6.59c-4.22 0-6.66-2.75-6.66-7.36v-5.12c0-4.61 2.43-7.36 6.66-7.36 3.33 0 6.14 1.6 6.14 5.06v9.73c0 3.46-2.82 5.06-6.14 5.06zm23.2 6.59h9.47v-6.02h0.448c1.66 3.97 4.48 6.78 9.79 6.78 7.3 0 12.4-5.31 12.4-17.3s-5.12-17.3-12.4-17.3c-5.31 0-8.13 2.82-9.79 6.78h-0.448v-20.4h-9.47zm15.6-6.59c-3.33 0-6.14-1.6-6.14-5.06v-9.73c0-3.46 2.82-5.06 6.14-5.06 4.22 0 6.66 2.75 6.66 7.36v5.12c0 4.61-2.43 7.36-6.66 7.36zm38.2 7.36c10.3 0 16.6-6.59 16.6-17.3s-6.27-17.3-16.6-17.3-16.6 6.59-16.6 17.3 6.27 17.3 16.6 17.3zm0-7.04c-4.22 0-6.78-2.75-6.78-7.62v-5.25c0-4.86 2.56-7.62 6.78-7.62s6.78 2.75 6.78 7.62v5.25c0 4.86-2.56 7.62-6.78 7.62zm38.4 7.04c10.3 0 16.6-6.59 16.6-17.3s-6.27-17.3-16.6-17.3-16.6 6.59-16.6 17.3 6.27 17.3 16.6 17.3zm0-7.04c-4.22 0-6.78-2.75-6.78-7.62v-5.25c0-4.86 2.56-7.62 6.78-7.62s6.78 2.75 6.78 7.62v5.25c0 4.86-2.56 7.62-6.78 7.62zm38.4 7.04c10.3 0 16.6-6.59 16.6-17.3s-6.27-17.3-16.6-17.3-16.6 6.59-16.6 17.3 6.27 17.3 16.6 17.3zm0-7.04c-4.22 0-6.78-2.75-6.78-7.62v-5.25c0-4.86 2.56-7.62 6.78-7.62s6.78 2.75 6.78 7.62v5.25c0 4.86-2.56 7.62-6.78 7.62zm23.4 6.27h9.47v-11.5l3.14-3.14 9.6 14.6h11.3l-14.1-20 12.8-13.1h-10.9l-6.91 7.36-4.42 5.18h-0.448v-26.9h-9.47z" fill="#fff"/></svg>
