<svg class="w-6 h-6" width="128" height="128" version="1.1" viewBox="0 0 128 128" xmlns="http://www.w3.org/2000/svg"><path d="m0 9.14c0-4.57 4.57-9.14 9.14-9.14h110c4.57 0 9.14 4.57 9.14 9.88v109c0 4.57-4.57 9.14-9.14 9.14h-110c-4.57 0-9.14-4.57-9.14-9.14v-110z" fill="#0d1520" stroke-dasharray="96.4837, 96.4837" stroke-linecap="round" stroke-linejoin="round" stroke-width="96.5" style="paint-order:stroke fill markers"/><path d="m59.8 45.1c-8.09-4.27-15.6-8.4-25.2-8.39-5.71-0.0048-13 1.18-18.4 2.75-1.55 0.451-2.58 1.66-2.58 3.01v52.3c3.83e-4 2.2 2.64 3.74 5.16 3.01 4.56-1.33 11-2.36 15.8-2.35 10.3 0 17.8 3.37 25.2 8.39zm8.39 58.7c7.62-5.2 15.3-8.4 25.2-8.39 4.98 0 11.4 1.06 15.8 2.36 2.52 0.735 5.16-0.809 5.16-3.01v-52.3c-2.3e-4 -1.35-1.03-2.56-2.58-3.01-5.39-1.57-12.7-2.76-18.4-2.75-9.6-0.0118-17.1 4.11-25.2 8.39z" fill="#ff801f" stroke-width="4.69"/><path d="m59.8 40.9c-8.09-4.27-15.6-8.4-25.2-8.39-5.71-0.00482-13 1.05-18.4 2.62-1.55 0.451-2.58 1.66-2.58 3.01v52.3c3.79e-4 2.2 2.64 3.74 5.16 3.01 4.56-1.33 11-2.23 15.8-2.22 10.3 0 17.8 3.37 25.2 8.39zm8.39 58.7c7.62-5.2 15.3-8.4 25.2-8.39 4.98 0 11.4 0.934 15.8 2.23 2.52 0.735 5.16-0.809 5.16-3.01v-52.3c-2.3e-4 -1.35-1.03-2.56-2.58-3.01-5.39-1.57-12.7-2.63-18.4-2.62-9.6-0.0118-17.1 4.11-25.2 8.39z" fill="#00a2c7" stroke-width="4.69"/><path d="m59.8 36.7c-8.09-4.27-15.6-8.4-25.2-8.39-5.71-0.0048-13 0.923-18.4 2.49-1.55 0.451-2.58 1.66-2.58 3.01v52.3c3.83e-4 2.2 2.64 3.74 5.16 3.01 4.56-1.33 11-2.1 15.8-2.09 10.3 0 17.8 3.37 25.2 8.39zm8.39 58.7c7.62-5.2 15.3-8.4 25.2-8.39 4.98 0 11.4 0.805 15.8 2.1 2.52 0.735 5.16-0.809 5.16-3.01v-52.3c-2.3e-4 -1.35-1.03-2.56-2.58-3.01-5.39-1.57-12.7-2.5-18.4-2.49-9.6-0.0118-17.1 4.11-25.2 8.39z" fill="#ffc53d" stroke-width="4.69"/><path d="m59.8 32.6c-8.09-4.27-15.6-8.4-25.2-8.39-5.71-0.0048-13 0.794-18.4 2.36-1.55 0.451-2.58 1.66-2.58 3.01v52.3c3.79e-4 2.2 2.64 3.74 5.16 3.01 4.56-1.33 11-1.97 15.8-1.97 10.3 0 17.8 3.37 25.2 8.39zm8.39 58.7c7.62-5.2 15.3-8.4 25.2-8.39 4.98 0 11.4 0.676 15.8 1.97 2.52 0.735 5.16-0.809 5.16-3.01v-52.3c-2.3e-4 -1.35-1.03-2.56-2.58-3.01-5.39-1.57-12.7-2.37-18.4-2.36-9.6-0.0118-17.1 4.11-25.2 8.39z" fill="#edeef0" stroke-width="4.69"/></svg>
